<mxfile host="Electron" modified="2023-05-27T15:26:56.004Z" agent="Mozilla/5.0 (Macintosh; Intel Mac OS X 10_15_7) AppleWebKit/537.36 (KHTML, like Gecko) draw.io/21.2.1 Chrome/112.0.5615.87 Electron/24.1.2 Safari/537.36" etag="i7uwqg-NK0dWfj-x6kQ_" version="21.2.1" type="device">
  <diagram name="Page-1" id="H1nZVYqxkzLZFgEqRADx">
    <mxGraphModel dx="4510" dy="7133" grid="1" gridSize="10" guides="1" tooltips="1" connect="1" arrows="1" fold="1" page="1" pageScale="1" pageWidth="850" pageHeight="1100" math="0" shadow="0">
      <root>
        <mxCell id="0" />
        <mxCell id="1" parent="0" />
        <mxCell id="AsBp8XiL8Dx4Y6rQVwFH-3841" value="R, W: 121, H: 117, ORDER: 15, GC: {53, 35, 33, 6, 27, 18, 13, 4, 10, 12, 1, 11, 64, 7, 57} " style="text;html=1;strokeColor=none;fillColor=none;align=center;verticalAlign=middle;whiteSpace=wrap;rounded=0;flipV=1;" parent="1" vertex="1">
          <mxGeometry x="1310" width="1210" height="30" as="geometry" />
        </mxCell>
        <mxCell id="AsBp8XiL8Dx4Y6rQVwFH-10669" value="R, W: 121, H: 109, ORDER: 19, GC: {50, 32, 39, 18, 14, 7, 15, 17, 13, 8, 21, 2, 19, 59, 9, 22, 6, 34, 28} " style="text;html=1;strokeColor=none;fillColor=none;align=center;verticalAlign=middle;whiteSpace=wrap;rounded=0;flipV=1;" parent="1" vertex="1">
          <mxGeometry x="1295" y="1330" width="1210" height="30" as="geometry" />
        </mxCell>
        <mxCell id="AsBp8XiL8Dx4Y6rQVwFH-10749" value="R, W: 121, H: 89, ORDER: 19, GC: {41, 29, 26, 25, 7, 18, 20, 6, 13, 2, 16, 1, 14, 12, 17, 48, 5, 43, 30} " style="text;html=1;strokeColor=none;fillColor=none;align=center;verticalAlign=middle;whiteSpace=wrap;rounded=0;flipV=1;" parent="1" vertex="1">
          <mxGeometry x="1325" y="2590" width="1210" height="30" as="geometry" />
        </mxCell>
        <mxCell id="AsBp8XiL8Dx4Y6rQVwFH-10829" value="R, W: 121, H: 109, ORDER: 19, GC: {48, 35, 38, 13, 19, 3, 14, 27, 2, 12, 61, 21, 11, 1, 10, 18, 34, 8, 26} " style="text;html=1;strokeColor=none;fillColor=none;align=center;verticalAlign=middle;whiteSpace=wrap;rounded=0;flipV=1;" parent="1" vertex="1">
          <mxGeometry x="1315" y="3640" width="1210" height="30" as="geometry" />
        </mxCell>
        <mxCell id="cRQAKJYiisDVMDdG0Nfb-1" value="" style="group;flipV=1;" vertex="1" connectable="0" parent="1">
          <mxGeometry x="1310" y="50" width="1210" height="1170" as="geometry" />
        </mxCell>
        <mxCell id="761dnnyQ54j-Cl0NHfQN-3842" value="53" style="rounded=0;whiteSpace=wrap;html=1;" parent="cRQAKJYiisDVMDdG0Nfb-1" vertex="1">
          <mxGeometry y="640" width="530" height="530" as="geometry" />
        </mxCell>
        <mxCell id="761dnnyQ54j-Cl0NHfQN-3843" value="35" style="rounded=0;whiteSpace=wrap;html=1;" parent="cRQAKJYiisDVMDdG0Nfb-1" vertex="1">
          <mxGeometry x="530" y="820" width="350" height="350" as="geometry" />
        </mxCell>
        <mxCell id="761dnnyQ54j-Cl0NHfQN-3844" value="33" style="rounded=0;whiteSpace=wrap;html=1;" parent="cRQAKJYiisDVMDdG0Nfb-1" vertex="1">
          <mxGeometry x="880" y="840" width="330" height="330" as="geometry" />
        </mxCell>
        <mxCell id="761dnnyQ54j-Cl0NHfQN-3845" value="6" style="rounded=0;whiteSpace=wrap;html=1;" parent="cRQAKJYiisDVMDdG0Nfb-1" vertex="1">
          <mxGeometry x="880" y="780" width="60" height="60" as="geometry" />
        </mxCell>
        <mxCell id="761dnnyQ54j-Cl0NHfQN-3846" value="27" style="rounded=0;whiteSpace=wrap;html=1;" parent="cRQAKJYiisDVMDdG0Nfb-1" vertex="1">
          <mxGeometry x="940" y="570" width="270" height="270" as="geometry" />
        </mxCell>
        <mxCell id="761dnnyQ54j-Cl0NHfQN-3847" value="18" style="rounded=0;whiteSpace=wrap;html=1;" parent="cRQAKJYiisDVMDdG0Nfb-1" vertex="1">
          <mxGeometry x="530" y="640" width="180" height="180" as="geometry" />
        </mxCell>
        <mxCell id="761dnnyQ54j-Cl0NHfQN-3848" value="13" style="rounded=0;whiteSpace=wrap;html=1;" parent="cRQAKJYiisDVMDdG0Nfb-1" vertex="1">
          <mxGeometry x="710" y="690" width="130" height="130" as="geometry" />
        </mxCell>
        <mxCell id="761dnnyQ54j-Cl0NHfQN-3849" value="4" style="rounded=0;whiteSpace=wrap;html=1;" parent="cRQAKJYiisDVMDdG0Nfb-1" vertex="1">
          <mxGeometry x="840" y="780" width="40" height="40" as="geometry" />
        </mxCell>
        <mxCell id="761dnnyQ54j-Cl0NHfQN-3850" value="10" style="rounded=0;whiteSpace=wrap;html=1;" parent="cRQAKJYiisDVMDdG0Nfb-1" vertex="1">
          <mxGeometry x="840" y="680" width="100" height="100" as="geometry" />
        </mxCell>
        <mxCell id="761dnnyQ54j-Cl0NHfQN-3851" value="12" style="rounded=0;whiteSpace=wrap;html=1;" parent="cRQAKJYiisDVMDdG0Nfb-1" vertex="1">
          <mxGeometry x="710" y="570" width="120" height="120" as="geometry" />
        </mxCell>
        <mxCell id="761dnnyQ54j-Cl0NHfQN-3852" value="1" style="rounded=0;whiteSpace=wrap;html=1;" parent="cRQAKJYiisDVMDdG0Nfb-1" vertex="1">
          <mxGeometry x="830" y="680" width="10" height="10" as="geometry" />
        </mxCell>
        <mxCell id="761dnnyQ54j-Cl0NHfQN-3853" value="11" style="rounded=0;whiteSpace=wrap;html=1;" parent="cRQAKJYiisDVMDdG0Nfb-1" vertex="1">
          <mxGeometry x="830" y="570" width="110" height="110" as="geometry" />
        </mxCell>
        <mxCell id="761dnnyQ54j-Cl0NHfQN-3854" value="64" style="rounded=0;whiteSpace=wrap;html=1;" parent="cRQAKJYiisDVMDdG0Nfb-1" vertex="1">
          <mxGeometry width="640" height="640" as="geometry" />
        </mxCell>
        <mxCell id="761dnnyQ54j-Cl0NHfQN-3855" value="7" style="rounded=0;whiteSpace=wrap;html=1;" parent="cRQAKJYiisDVMDdG0Nfb-1" vertex="1">
          <mxGeometry x="640" y="570" width="70" height="70" as="geometry" />
        </mxCell>
        <mxCell id="761dnnyQ54j-Cl0NHfQN-3856" value="57" style="rounded=0;whiteSpace=wrap;html=1;" parent="cRQAKJYiisDVMDdG0Nfb-1" vertex="1">
          <mxGeometry x="640" width="570" height="570" as="geometry" />
        </mxCell>
        <mxCell id="cRQAKJYiisDVMDdG0Nfb-2" value="" style="group;flipV=1;" vertex="1" connectable="0" parent="1">
          <mxGeometry x="1295" y="1380" width="1210" height="1090" as="geometry" />
        </mxCell>
        <mxCell id="761dnnyQ54j-Cl0NHfQN-10670" value="50" style="rounded=0;whiteSpace=wrap;html=1;" parent="cRQAKJYiisDVMDdG0Nfb-2" vertex="1">
          <mxGeometry y="590" width="500" height="500" as="geometry" />
        </mxCell>
        <mxCell id="761dnnyQ54j-Cl0NHfQN-10671" value="32" style="rounded=0;whiteSpace=wrap;html=1;" parent="cRQAKJYiisDVMDdG0Nfb-2" vertex="1">
          <mxGeometry x="500" y="770" width="320" height="320" as="geometry" />
        </mxCell>
        <mxCell id="761dnnyQ54j-Cl0NHfQN-10672" value="39" style="rounded=0;whiteSpace=wrap;html=1;" parent="cRQAKJYiisDVMDdG0Nfb-2" vertex="1">
          <mxGeometry x="820" y="700" width="390" height="390" as="geometry" />
        </mxCell>
        <mxCell id="761dnnyQ54j-Cl0NHfQN-10673" value="18" style="rounded=0;whiteSpace=wrap;html=1;" parent="cRQAKJYiisDVMDdG0Nfb-2" vertex="1">
          <mxGeometry x="500" y="590" width="180" height="180" as="geometry" />
        </mxCell>
        <mxCell id="761dnnyQ54j-Cl0NHfQN-10674" value="14" style="rounded=0;whiteSpace=wrap;html=1;" parent="cRQAKJYiisDVMDdG0Nfb-2" vertex="1">
          <mxGeometry x="680" y="630" width="140" height="140" as="geometry" />
        </mxCell>
        <mxCell id="761dnnyQ54j-Cl0NHfQN-10675" value="7" style="rounded=0;whiteSpace=wrap;html=1;" parent="cRQAKJYiisDVMDdG0Nfb-2" vertex="1">
          <mxGeometry x="820" y="630" width="70" height="70" as="geometry" />
        </mxCell>
        <mxCell id="761dnnyQ54j-Cl0NHfQN-10676" value="15" style="rounded=0;whiteSpace=wrap;html=1;" parent="cRQAKJYiisDVMDdG0Nfb-2" vertex="1">
          <mxGeometry x="890" y="550" width="150" height="150" as="geometry" />
        </mxCell>
        <mxCell id="761dnnyQ54j-Cl0NHfQN-10677" value="17" style="rounded=0;whiteSpace=wrap;html=1;" parent="cRQAKJYiisDVMDdG0Nfb-2" vertex="1">
          <mxGeometry x="1040" y="530" width="170" height="170" as="geometry" />
        </mxCell>
        <mxCell id="761dnnyQ54j-Cl0NHfQN-10678" value="13" style="rounded=0;whiteSpace=wrap;html=1;" parent="cRQAKJYiisDVMDdG0Nfb-2" vertex="1">
          <mxGeometry x="680" y="500" width="130" height="130" as="geometry" />
        </mxCell>
        <mxCell id="761dnnyQ54j-Cl0NHfQN-10679" value="8" style="rounded=0;whiteSpace=wrap;html=1;" parent="cRQAKJYiisDVMDdG0Nfb-2" vertex="1">
          <mxGeometry x="810" y="550" width="80" height="80" as="geometry" />
        </mxCell>
        <mxCell id="761dnnyQ54j-Cl0NHfQN-10680" value="21" style="rounded=0;whiteSpace=wrap;html=1;" parent="cRQAKJYiisDVMDdG0Nfb-2" vertex="1">
          <mxGeometry x="810" y="340" width="210" height="210" as="geometry" />
        </mxCell>
        <mxCell id="761dnnyQ54j-Cl0NHfQN-10681" value="2" style="rounded=0;whiteSpace=wrap;html=1;" parent="cRQAKJYiisDVMDdG0Nfb-2" vertex="1">
          <mxGeometry x="1020" y="530" width="20" height="20" as="geometry" />
        </mxCell>
        <mxCell id="761dnnyQ54j-Cl0NHfQN-10682" value="19" style="rounded=0;whiteSpace=wrap;html=1;" parent="cRQAKJYiisDVMDdG0Nfb-2" vertex="1">
          <mxGeometry x="1020" y="340" width="190" height="190" as="geometry" />
        </mxCell>
        <mxCell id="761dnnyQ54j-Cl0NHfQN-10683" value="59" style="rounded=0;whiteSpace=wrap;html=1;" parent="cRQAKJYiisDVMDdG0Nfb-2" vertex="1">
          <mxGeometry width="590" height="590" as="geometry" />
        </mxCell>
        <mxCell id="761dnnyQ54j-Cl0NHfQN-10684" value="9" style="rounded=0;whiteSpace=wrap;html=1;" parent="cRQAKJYiisDVMDdG0Nfb-2" vertex="1">
          <mxGeometry x="590" y="500" width="90" height="90" as="geometry" />
        </mxCell>
        <mxCell id="761dnnyQ54j-Cl0NHfQN-10685" value="22" style="rounded=0;whiteSpace=wrap;html=1;" parent="cRQAKJYiisDVMDdG0Nfb-2" vertex="1">
          <mxGeometry x="590" y="280" width="220" height="220" as="geometry" />
        </mxCell>
        <mxCell id="761dnnyQ54j-Cl0NHfQN-10686" value="6" style="rounded=0;whiteSpace=wrap;html=1;" parent="cRQAKJYiisDVMDdG0Nfb-2" vertex="1">
          <mxGeometry x="810" y="280" width="60" height="60" as="geometry" />
        </mxCell>
        <mxCell id="761dnnyQ54j-Cl0NHfQN-10687" value="34" style="rounded=0;whiteSpace=wrap;html=1;" parent="cRQAKJYiisDVMDdG0Nfb-2" vertex="1">
          <mxGeometry x="870" width="340" height="340" as="geometry" />
        </mxCell>
        <mxCell id="761dnnyQ54j-Cl0NHfQN-10688" value="28" style="rounded=0;whiteSpace=wrap;html=1;" parent="cRQAKJYiisDVMDdG0Nfb-2" vertex="1">
          <mxGeometry x="590" width="280" height="280" as="geometry" />
        </mxCell>
        <mxCell id="cRQAKJYiisDVMDdG0Nfb-3" value="" style="group;flipV=1;" vertex="1" connectable="0" parent="1">
          <mxGeometry x="1325" y="2640" width="1210" height="890" as="geometry" />
        </mxCell>
        <mxCell id="761dnnyQ54j-Cl0NHfQN-10750" value="41" style="rounded=0;whiteSpace=wrap;html=1;" parent="cRQAKJYiisDVMDdG0Nfb-3" vertex="1">
          <mxGeometry y="480" width="410" height="410" as="geometry" />
        </mxCell>
        <mxCell id="761dnnyQ54j-Cl0NHfQN-10751" value="29" style="rounded=0;whiteSpace=wrap;html=1;" parent="cRQAKJYiisDVMDdG0Nfb-3" vertex="1">
          <mxGeometry x="410" y="600" width="290" height="290" as="geometry" />
        </mxCell>
        <mxCell id="761dnnyQ54j-Cl0NHfQN-10752" value="26" style="rounded=0;whiteSpace=wrap;html=1;" parent="cRQAKJYiisDVMDdG0Nfb-3" vertex="1">
          <mxGeometry x="700" y="630" width="260" height="260" as="geometry" />
        </mxCell>
        <mxCell id="761dnnyQ54j-Cl0NHfQN-10753" value="25" style="rounded=0;whiteSpace=wrap;html=1;" parent="cRQAKJYiisDVMDdG0Nfb-3" vertex="1">
          <mxGeometry x="960" y="640" width="250" height="250" as="geometry" />
        </mxCell>
        <mxCell id="761dnnyQ54j-Cl0NHfQN-10754" value="7" style="rounded=0;whiteSpace=wrap;html=1;" parent="cRQAKJYiisDVMDdG0Nfb-3" vertex="1">
          <mxGeometry x="960" y="570" width="70" height="70" as="geometry" />
        </mxCell>
        <mxCell id="761dnnyQ54j-Cl0NHfQN-10755" value="18" style="rounded=0;whiteSpace=wrap;html=1;" parent="cRQAKJYiisDVMDdG0Nfb-3" vertex="1">
          <mxGeometry x="1030" y="460" width="180" height="180" as="geometry" />
        </mxCell>
        <mxCell id="761dnnyQ54j-Cl0NHfQN-10756" value="20" style="rounded=0;whiteSpace=wrap;html=1;" parent="cRQAKJYiisDVMDdG0Nfb-3" vertex="1">
          <mxGeometry x="700" y="430" width="200" height="200" as="geometry" />
        </mxCell>
        <mxCell id="761dnnyQ54j-Cl0NHfQN-10757" value="6" style="rounded=0;whiteSpace=wrap;html=1;" parent="cRQAKJYiisDVMDdG0Nfb-3" vertex="1">
          <mxGeometry x="900" y="570" width="60" height="60" as="geometry" />
        </mxCell>
        <mxCell id="761dnnyQ54j-Cl0NHfQN-10758" value="13" style="rounded=0;whiteSpace=wrap;html=1;" parent="cRQAKJYiisDVMDdG0Nfb-3" vertex="1">
          <mxGeometry x="900" y="440" width="130" height="130" as="geometry" />
        </mxCell>
        <mxCell id="761dnnyQ54j-Cl0NHfQN-10759" value="2" style="rounded=0;whiteSpace=wrap;html=1;" parent="cRQAKJYiisDVMDdG0Nfb-3" vertex="1">
          <mxGeometry x="1030" y="440" width="20" height="20" as="geometry" />
        </mxCell>
        <mxCell id="761dnnyQ54j-Cl0NHfQN-10760" value="16" style="rounded=0;whiteSpace=wrap;html=1;" parent="cRQAKJYiisDVMDdG0Nfb-3" vertex="1">
          <mxGeometry x="1050" y="300" width="160" height="160" as="geometry" />
        </mxCell>
        <mxCell id="761dnnyQ54j-Cl0NHfQN-10761" value="1" style="rounded=0;whiteSpace=wrap;html=1;" parent="cRQAKJYiisDVMDdG0Nfb-3" vertex="1">
          <mxGeometry x="900" y="430" width="10" height="10" as="geometry" />
        </mxCell>
        <mxCell id="761dnnyQ54j-Cl0NHfQN-10762" value="14" style="rounded=0;whiteSpace=wrap;html=1;" parent="cRQAKJYiisDVMDdG0Nfb-3" vertex="1">
          <mxGeometry x="910" y="300" width="140" height="140" as="geometry" />
        </mxCell>
        <mxCell id="761dnnyQ54j-Cl0NHfQN-10763" value="12" style="rounded=0;whiteSpace=wrap;html=1;" parent="cRQAKJYiisDVMDdG0Nfb-3" vertex="1">
          <mxGeometry x="410" y="480" width="120" height="120" as="geometry" />
        </mxCell>
        <mxCell id="761dnnyQ54j-Cl0NHfQN-10764" value="17" style="rounded=0;whiteSpace=wrap;html=1;" parent="cRQAKJYiisDVMDdG0Nfb-3" vertex="1">
          <mxGeometry x="530" y="430" width="170" height="170" as="geometry" />
        </mxCell>
        <mxCell id="761dnnyQ54j-Cl0NHfQN-10765" value="48" style="rounded=0;whiteSpace=wrap;html=1;" parent="cRQAKJYiisDVMDdG0Nfb-3" vertex="1">
          <mxGeometry width="480" height="480" as="geometry" />
        </mxCell>
        <mxCell id="761dnnyQ54j-Cl0NHfQN-10766" value="5" style="rounded=0;whiteSpace=wrap;html=1;" parent="cRQAKJYiisDVMDdG0Nfb-3" vertex="1">
          <mxGeometry x="480" y="430" width="50" height="50" as="geometry" />
        </mxCell>
        <mxCell id="761dnnyQ54j-Cl0NHfQN-10767" value="43" style="rounded=0;whiteSpace=wrap;html=1;" parent="cRQAKJYiisDVMDdG0Nfb-3" vertex="1">
          <mxGeometry x="480" width="430" height="430" as="geometry" />
        </mxCell>
        <mxCell id="761dnnyQ54j-Cl0NHfQN-10768" value="30" style="rounded=0;whiteSpace=wrap;html=1;" parent="cRQAKJYiisDVMDdG0Nfb-3" vertex="1">
          <mxGeometry x="910" width="300" height="300" as="geometry" />
        </mxCell>
        <mxCell id="cRQAKJYiisDVMDdG0Nfb-4" value="" style="group;flipV=1;" vertex="1" connectable="0" parent="1">
          <mxGeometry x="1315" y="3690" width="1210" height="1090" as="geometry" />
        </mxCell>
        <mxCell id="761dnnyQ54j-Cl0NHfQN-10830" value="48" style="rounded=0;whiteSpace=wrap;html=1;" parent="cRQAKJYiisDVMDdG0Nfb-4" vertex="1">
          <mxGeometry y="610" width="480" height="480" as="geometry" />
        </mxCell>
        <mxCell id="761dnnyQ54j-Cl0NHfQN-10831" value="35" style="rounded=0;whiteSpace=wrap;html=1;" parent="cRQAKJYiisDVMDdG0Nfb-4" vertex="1">
          <mxGeometry x="480" y="740" width="350" height="350" as="geometry" />
        </mxCell>
        <mxCell id="761dnnyQ54j-Cl0NHfQN-10832" value="38" style="rounded=0;whiteSpace=wrap;html=1;" parent="cRQAKJYiisDVMDdG0Nfb-4" vertex="1">
          <mxGeometry x="830" y="710" width="380" height="380" as="geometry" />
        </mxCell>
        <mxCell id="761dnnyQ54j-Cl0NHfQN-10833" value="13" style="rounded=0;whiteSpace=wrap;html=1;" parent="cRQAKJYiisDVMDdG0Nfb-4" vertex="1">
          <mxGeometry x="480" y="610" width="130" height="130" as="geometry" />
        </mxCell>
        <mxCell id="761dnnyQ54j-Cl0NHfQN-10834" value="19" style="rounded=0;whiteSpace=wrap;html=1;" parent="cRQAKJYiisDVMDdG0Nfb-4" vertex="1">
          <mxGeometry x="610" y="550" width="190" height="190" as="geometry" />
        </mxCell>
        <mxCell id="761dnnyQ54j-Cl0NHfQN-10835" value="3" style="rounded=0;whiteSpace=wrap;html=1;" parent="cRQAKJYiisDVMDdG0Nfb-4" vertex="1">
          <mxGeometry x="800" y="710" width="30" height="30" as="geometry" />
        </mxCell>
        <mxCell id="761dnnyQ54j-Cl0NHfQN-10836" value="14" style="rounded=0;whiteSpace=wrap;html=1;" parent="cRQAKJYiisDVMDdG0Nfb-4" vertex="1">
          <mxGeometry x="800" y="570" width="140" height="140" as="geometry" />
        </mxCell>
        <mxCell id="761dnnyQ54j-Cl0NHfQN-10837" value="27" style="rounded=0;whiteSpace=wrap;html=1;" parent="cRQAKJYiisDVMDdG0Nfb-4" vertex="1">
          <mxGeometry x="940" y="440" width="270" height="270" as="geometry" />
        </mxCell>
        <mxCell id="761dnnyQ54j-Cl0NHfQN-10838" value="2" style="rounded=0;whiteSpace=wrap;html=1;" parent="cRQAKJYiisDVMDdG0Nfb-4" vertex="1">
          <mxGeometry x="800" y="550" width="20" height="20" as="geometry" />
        </mxCell>
        <mxCell id="761dnnyQ54j-Cl0NHfQN-10839" value="12" style="rounded=0;whiteSpace=wrap;html=1;" parent="cRQAKJYiisDVMDdG0Nfb-4" vertex="1">
          <mxGeometry x="820" y="450" width="120" height="120" as="geometry" />
        </mxCell>
        <mxCell id="761dnnyQ54j-Cl0NHfQN-10840" value="61" style="rounded=0;whiteSpace=wrap;html=1;" parent="cRQAKJYiisDVMDdG0Nfb-4" vertex="1">
          <mxGeometry width="610" height="610" as="geometry" />
        </mxCell>
        <mxCell id="761dnnyQ54j-Cl0NHfQN-10841" value="21" style="rounded=0;whiteSpace=wrap;html=1;" parent="cRQAKJYiisDVMDdG0Nfb-4" vertex="1">
          <mxGeometry x="610" y="340" width="210" height="210" as="geometry" />
        </mxCell>
        <mxCell id="761dnnyQ54j-Cl0NHfQN-10842" value="11" style="rounded=0;whiteSpace=wrap;html=1;" parent="cRQAKJYiisDVMDdG0Nfb-4" vertex="1">
          <mxGeometry x="820" y="340" width="110" height="110" as="geometry" />
        </mxCell>
        <mxCell id="761dnnyQ54j-Cl0NHfQN-10843" value="1" style="rounded=0;whiteSpace=wrap;html=1;" parent="cRQAKJYiisDVMDdG0Nfb-4" vertex="1">
          <mxGeometry x="930" y="440" width="10" height="10" as="geometry" />
        </mxCell>
        <mxCell id="761dnnyQ54j-Cl0NHfQN-10844" value="10" style="rounded=0;whiteSpace=wrap;html=1;" parent="cRQAKJYiisDVMDdG0Nfb-4" vertex="1">
          <mxGeometry x="930" y="340" width="100" height="100" as="geometry" />
        </mxCell>
        <mxCell id="761dnnyQ54j-Cl0NHfQN-10845" value="18" style="rounded=0;whiteSpace=wrap;html=1;" parent="cRQAKJYiisDVMDdG0Nfb-4" vertex="1">
          <mxGeometry x="1030" y="260" width="180" height="180" as="geometry" />
        </mxCell>
        <mxCell id="761dnnyQ54j-Cl0NHfQN-10846" value="34" style="rounded=0;whiteSpace=wrap;html=1;" parent="cRQAKJYiisDVMDdG0Nfb-4" vertex="1">
          <mxGeometry x="610" width="340" height="340" as="geometry" />
        </mxCell>
        <mxCell id="761dnnyQ54j-Cl0NHfQN-10847" value="8" style="rounded=0;whiteSpace=wrap;html=1;" parent="cRQAKJYiisDVMDdG0Nfb-4" vertex="1">
          <mxGeometry x="950" y="260" width="80" height="80" as="geometry" />
        </mxCell>
        <mxCell id="761dnnyQ54j-Cl0NHfQN-10848" value="26" style="rounded=0;whiteSpace=wrap;html=1;" parent="cRQAKJYiisDVMDdG0Nfb-4" vertex="1">
          <mxGeometry x="950" width="260" height="260" as="geometry" />
        </mxCell>
      </root>
    </mxGraphModel>
  </diagram>
</mxfile>
